Coordinates
version=1
nRows=65
nColumns=12
inDegrees=yes

Units are S.I. units (second, meters, Newtons, ...)
Angles are in degrees

endheader
time	SC_y	SC_z	SC_x	AC_y	AC_z	AC_x	GH_y	GH_z	GH_yy	EL_x	PS_y
       0.0              -40.19          23.48          29.82          31.68         -13.56         -10.81          68.16          22.02         -104.6          67.47          106.4
   0.03507               -40.2          23.48          29.82          31.68         -13.55         -10.81          68.16          22.02         -104.6          67.47          106.4
   0.07014               -40.2          23.48          29.83          31.68         -13.55         -10.82          68.17          22.02         -104.6          67.47          106.4
    0.1052               -40.2          23.47          29.84          31.68         -13.55         -10.82          68.18          22.02         -104.6          67.48          106.4
    0.1403               -40.2          23.47          29.84          31.69         -13.55         -10.82          68.19          22.02         -104.5          67.48          106.4
    0.1753               -40.2          23.47          29.85          31.69         -13.54         -10.82           68.2          22.02         -104.5          67.48          106.4
    0.2104              -40.21          23.47          29.86          31.69         -13.54         -10.82          68.21          22.02         -104.5          67.48          106.4
    0.2455              -40.21          23.46          29.87          31.69         -13.53         -10.82          68.23          22.02         -104.5          67.48          106.4
    0.2805              -40.21          23.46          29.88          31.69         -13.53         -10.82          68.24          22.02         -104.5          67.49          106.4
    0.3156              -40.21          23.46          29.89          31.69         -13.53         -10.82          68.25          22.02         -104.5          67.49          106.4
    0.3507              -40.22          23.45           29.9           31.7         -13.52         -10.82          68.27          22.02         -104.4          67.49          106.4
    0.3857              -40.22          23.45          29.91           31.7         -13.52         -10.82          68.29          22.03         -104.4           67.5          106.5
    0.4208              -40.22          23.45          29.93           31.7         -13.51         -10.82           68.3          22.03         -104.4           67.5          106.5
    0.4559              -40.23          23.44          29.94           31.7         -13.51         -10.82          68.32          22.03         -104.4          67.51          106.5
    0.4909              -40.23          23.44          29.96          31.71          -13.5         -10.82          68.34          22.03         -104.3          67.51          106.5
     0.526              -40.24          23.43          29.97          31.71         -13.49         -10.82          68.37          22.03         -104.3          67.51          106.5
    0.5611              -40.24          23.43          29.99          31.71         -13.48         -10.82          68.39          22.03         -104.3          67.52          106.5
    0.5962              -40.25          23.42          30.01          31.71         -13.48         -10.82          68.42          22.03         -104.2          67.52          106.5
    0.6312              -40.25          23.41          30.03          31.72         -13.47         -10.82          68.45          22.03         -104.2          67.53          106.5
    0.6663              -40.26          23.41          30.06          31.72         -13.46         -10.82          68.48          22.03         -104.1          67.54          106.6
    0.7014              -40.27           23.4          30.08          31.73         -13.45         -10.83          68.51          22.04         -104.1          67.55          106.6
    0.7364              -40.28          23.39          30.11          31.73         -13.44         -10.83          68.55          22.04         -104.0          67.55          106.6
    0.7715              -40.28          23.38          30.15          31.74         -13.42         -10.83          68.59          22.04         -104.0          67.56          106.6
    0.8066              -40.29          23.37          30.18          31.74         -13.41         -10.83          68.64          22.04         -103.9          67.57          106.7
    0.8416              -40.31          23.36          30.22          31.75         -13.39         -10.83          68.69          22.05         -103.8          67.58          106.7
    0.8767              -40.32          23.34          30.26          31.76         -13.38         -10.83          68.75          22.05         -103.7           67.6          106.7
    0.9118              -40.33          23.33          30.31          31.77         -13.36         -10.83          68.82          22.05         -103.6          67.61          106.8
    0.9468              -40.35          23.31          30.37          31.78         -13.33         -10.84          68.89          22.05         -103.5          67.62          106.8
    0.9819              -40.36          23.29          30.43          31.79         -13.31         -10.84          68.97          22.06         -103.4          67.64          106.9
     1.017              -40.38          23.27           30.5           31.8         -13.28         -10.84          69.07          22.06         -103.3          67.66          106.9
     1.052              -40.41          23.25          30.58          31.81         -13.25         -10.84          69.17          22.07         -103.1          67.68          107.0
     1.087              -40.43          23.22          30.67          31.83         -13.21         -10.85           69.3          22.07         -103.0          67.71          107.0
     1.122              -40.46          23.19          30.78          31.85         -13.17         -10.85          69.44          22.08         -102.7          67.74          107.1
     1.157               -40.5          23.15          30.91          31.87         -13.12         -10.86          69.61          22.09         -102.5          67.78          107.2
     1.192              -40.54           23.1          31.05           31.9         -13.06         -10.86           69.8           22.1         -102.2          67.82          107.3
     1.227              -40.58          23.05          31.22          31.93         -12.99         -10.87          70.03          22.11         -101.9          67.86          107.5
     1.262              -40.64          22.99          31.43          31.96          -12.9         -10.88           70.3          22.12         -101.5          67.92          107.6
     1.298              -40.71          22.92          31.67          32.01         -12.81         -10.89          70.62          22.14         -101.0          67.99          107.8
     1.333              -40.79          22.82          31.97          32.06         -12.69          -10.9          71.02          22.16         -100.5          68.07          108.0
     1.368              -40.89          22.71          32.33          32.12         -12.54         -10.91           71.5          22.18         -99.79          68.17          108.3
     1.403              -41.01          22.58          32.77           32.2         -12.36         -10.93          72.09          22.21         -98.94           68.3          108.7
     1.438              -41.17          22.41          33.33           32.3         -12.13         -10.95          72.83          22.25         -97.88          68.46          109.1
     1.473              -41.36           22.2          34.03          32.42         -11.85         -10.98          73.76          22.29         -96.54          68.65          109.6
     1.508              -41.61          21.92          34.92          32.58         -11.49         -11.01          74.95          22.35         -94.84           68.9          110.3
     1.543              -41.92          21.58          36.06          32.78         -11.03         -11.06          76.47          22.42         -92.66          69.22          111.2
     1.578              -42.33          21.13          37.52          33.03         -10.44         -11.11          78.41          22.52         -89.87          69.63          112.3
     1.613              -42.85          20.56          39.39          33.36         -9.679         -11.18           80.9          22.64          -86.3          70.16          113.7
     1.648               -43.5          19.85          41.74          33.78         -8.728         -11.27          84.02          22.79         -81.81          70.82          115.5
     1.683              -44.29          18.97           44.6          34.28         -7.569         -11.38          87.83          22.98         -76.34          71.62          117.7
     1.718              -45.21          17.96          47.91          34.86         -6.225         -11.51          92.25          23.19          -70.0          72.55          120.3
     1.753              -46.21          16.87           51.5          35.49          -4.77         -11.65          97.03          23.43         -63.13          73.56          123.1
     1.788               -47.2          15.77          55.09          36.12         -3.316         -11.79          101.8          23.66         -56.27          74.57          125.8
     1.824              -48.12          14.76          58.41          36.71         -1.972         -11.92          106.2          23.88         -49.93           75.5          128.4
     1.859              -48.92          13.89          61.27          37.21        -0.8128         -12.03          110.0          24.06         -44.46           76.3          130.6
     1.894              -49.57          13.17          63.62          37.62         0.1384         -12.12          113.2          24.21         -39.97          76.96          132.4
     1.929              -50.08           12.6          65.49          37.95         0.8948         -12.19          115.6          24.34          -36.4          77.48          133.8
     1.964              -50.49          12.16          66.95          38.21          1.487         -12.25          117.6          24.43         -33.61          77.89          134.9
     1.999              -50.81          11.81          68.09          38.41          1.949         -12.29          119.1           24.5         -31.43          78.21          135.8
     2.034              -51.05          11.54          68.98          38.56          2.309         -12.32          120.3          24.56         -29.73          78.46          136.5
     2.069              -51.25          11.33          69.68          38.69          2.593         -12.35          121.2          24.61         -28.39          78.66          137.0
     2.104               -51.4          11.16          70.23          38.78          2.818         -12.37          122.0          24.64         -27.33          78.82          137.5
     2.139              -51.52          11.02          70.68          38.86          2.998         -12.39          122.6          24.67         -26.48          78.94          137.8
     2.174              -51.62          10.91          71.04          38.93          3.145          -12.4          123.0           24.7         -25.79          79.04          138.1
     2.209              -51.71          10.82          71.34          38.98          3.264         -12.42          123.4          24.72         -25.22          79.13          138.3
     2.244              -51.77          10.75          71.58          39.02          3.363         -12.43          123.8          24.73         -24.76          79.19          138.5
